HIERARCHY
ROOT hip
{
  OFFSET 0.00112043 5.09927 -9.65472
  CHANNELS 6 Xposition Yposition Zposition Zrotation Xrotation Yrotation
  JOINT abdomen
  {
    OFFSET 0 -1.186 -1.5018
    CHANNELS 3 Zrotation Xrotation Yrotation
    JOINT abdomen2
    {
      OFFSET 0 9.964 0.2134
      CHANNELS 3 Zrotation Xrotation Yrotation
      JOINT chest
      {
        OFFSET 0 13.134 -3.2573
        CHANNELS 3 Zrotation Xrotation Yrotation
        JOINT neck
        {
          OFFSET 0 20.686 -1.6905
          CHANNELS 3 Zrotation Xrotation Yrotation
          JOINT head
          {
            OFFSET 0 7.238 -0.1237
            CHANNELS 3 Zrotation Xrotation Yrotation
            End Site
            {
              OFFSET 0 0 0
            }
          }
        }
        JOINT lCollar
        {
          OFFSET 1.7069 20.075 5.0056
          CHANNELS 3 Zrotation Xrotation Yrotation
          JOINT lShldr
          {
            OFFSET 13.6458 -0.047 -4.849
            CHANNELS 3 Zrotation Xrotation Yrotation
            JOINT lForeArm
            {
              OFFSET 28.3255 -0.9759 2.2888
              CHANNELS 3 Zrotation Xrotation Yrotation
              JOINT lHand
              {
                OFFSET 22.1583 -0.53 10.8316
                CHANNELS 3 Zrotation Xrotation Yrotation
                JOINT lThumb1
                {
                  OFFSET 0.786 0.112 2.5817
                  CHANNELS 3 Zrotation Xrotation Yrotation
                  JOINT lThumb2
                  {
                    OFFSET 0.3601 -0.878 4.2331
                    CHANNELS 3 Zrotation Xrotation Yrotation
                    JOINT lThumb2_End
                    {
                      OFFSET 1.8127 -1.216 2.2227
                      CHANNELS 3 Zrotation Xrotation Yrotation
                      End Site
                      {
                        OFFSET 0.0181 -0.0122 0.0222
                      }
                    }
                  }
                }
                JOINT lCarpal1
                {
                  OFFSET 0.9571 1.114 1.7695
                  CHANNELS 3 Zrotation Xrotation Yrotation
                  JOINT lIndex1
                  {
                    OFFSET 4.1246 0.487 4.1451
                    CHANNELS 3 Zrotation Xrotation Yrotation
                    JOINT lIndex2
                    {
                      OFFSET 3.4052 -1.454 2.7682
                      CHANNELS 3 Zrotation Xrotation Yrotation
                      JOINT lIndex2_End
                      {
                        OFFSET 1.4531 -1.795 1.2713
                        CHANNELS 3 Zrotation Xrotation Yrotation
                        End Site
                        {
                          OFFSET 0.0145 -0.0179 0.0127
                        }
                      }
                    }
                  }
                  JOINT lMid1
                  {
                    OFFSET 5.6954 0.21 2.1184
                    CHANNELS 3 Zrotation Xrotation Yrotation
                    JOINT lMid2
                    {
                      OFFSET 3.9766 -1.54 2.3863
                      CHANNELS 3 Zrotation Xrotation Yrotation
                      JOINT lMid2_End
                      {
                        OFFSET 1.4042 -1.926 1.125
                        CHANNELS 3 Zrotation Xrotation Yrotation
                        End Site
                        {
                          OFFSET 0.014 -0.0193 0.0113
                        }
                      }
                    }
                  }
                }
                JOINT lCarpal2
                {
                  OFFSET 2.0956 0.66 -0.3894
                  CHANNELS 3 Zrotation Xrotation Yrotation
                  JOINT lRing1
                  {
                    OFFSET 5.0395 -0.09 2.4971
                    CHANNELS 3 Zrotation Xrotation Yrotation
                    JOINT lRing2
                    {
                      OFFSET 3.7921 -1.552 1.4806
                      CHANNELS 3 Zrotation Xrotation Yrotation
                      JOINT lRing2_End
                      {
                        OFFSET 1.4655 -1.808 0.9609
                        CHANNELS 3 Zrotation Xrotation Yrotation
                        End Site
                        {
                          OFFSET 0.0147 -0.0181 0.0096
                        }
                      }
                    }
                  }
                  JOINT lPinky1
                  {
                    OFFSET 4.9141 -1.269 0.3591
                    CHANNELS 3 Zrotation Xrotation Yrotation
                    JOINT lPinky2
                    {
                      OFFSET 3.1477 -1.685 0.8462
                      CHANNELS 3 Zrotation Xrotation Yrotation
                      JOINT lPinky2_End
                      {
                        OFFSET 0.8055 -1.585 0.7955
                        CHANNELS 3 Zrotation Xrotation Yrotation
                        End Site
                        {
                          OFFSET 0.0081 -0.0158 0.008
                        }
                      }
                    }
                  }
                }
              }
            }
          }
        }
        JOINT rCollar
        {
          OFFSET -1.7069 20.075 5.0056
          CHANNELS 3 Zrotation Xrotation Yrotation
          JOINT rShldr
          {
            OFFSET -13.6458 -0.047 -4.849
            CHANNELS 3 Zrotation Xrotation Yrotation
            JOINT rForeArm
            {
              OFFSET -28.3255 -0.9759 2.2888
              CHANNELS 3 Zrotation Xrotation Yrotation
              JOINT rHand
              {
                OFFSET -22.1583 -0.53 10.8316
                CHANNELS 3 Zrotation Xrotation Yrotation
                JOINT rThumb1
                {
                  OFFSET -0.786 0.112 2.5817
                  CHANNELS 3 Zrotation Xrotation Yrotation
                  JOINT rThumb2
                  {
                    OFFSET -0.3601 -0.878 4.2331
                    CHANNELS 3 Zrotation Xrotation Yrotation
                    JOINT rThumb2_End
                    {
                      OFFSET -1.8127 -1.216 2.2227
                      CHANNELS 3 Zrotation Xrotation Yrotation
                      End Site
                      {
                        OFFSET -0.0181 -0.0122 0.0222
                      }
                    }
                  }
                }
                JOINT rCarpal1
                {
                  OFFSET -0.9571 1.114 1.7695
                  CHANNELS 3 Zrotation Xrotation Yrotation
                  JOINT rIndex1
                  {
                    OFFSET -4.1246 0.487 4.1451
                    CHANNELS 3 Zrotation Xrotation Yrotation
                    JOINT rIndex2
                    {
                      OFFSET -3.4052 -1.454 2.7682
                      CHANNELS 3 Zrotation Xrotation Yrotation
                      JOINT rIndex2_End
                      {
                        OFFSET -1.4531 -1.795 1.2713
                        CHANNELS 3 Zrotation Xrotation Yrotation
                        End Site
                        {
                          OFFSET -0.0145 -0.018 0.0127
                        }
                      }
                    }
                  }
                  JOINT rMid1
                  {
                    OFFSET -5.6954 0.21 2.1184
                    CHANNELS 3 Zrotation Xrotation Yrotation
                    JOINT rMid2
                    {
                      OFFSET -3.9766 -1.54 2.3863
                      CHANNELS 3 Zrotation Xrotation Yrotation
                      JOINT rMid2_End
                      {
                        OFFSET -1.4042 -1.926 1.125
                        CHANNELS 3 Zrotation Xrotation Yrotation
                        End Site
                        {
                          OFFSET -0.014 -0.0193 0.0113
                        }
                      }
                    }
                  }
                }
                JOINT rCarpal2
                {
                  OFFSET -2.0956 0.66 -0.3894
                  CHANNELS 3 Zrotation Xrotation Yrotation
                  JOINT rRing1
                  {
                    OFFSET -5.0395 -0.09 2.4971
                    CHANNELS 3 Zrotation Xrotation Yrotation
                    JOINT rRing2
                    {
                      OFFSET -3.7921 -1.552 1.4806
                      CHANNELS 3 Zrotation Xrotation Yrotation
                      JOINT rRing2_End
                      {
                        OFFSET -1.4655 -1.808 0.9609
                        CHANNELS 3 Zrotation Xrotation Yrotation
                        End Site
                        {
                          OFFSET -0.0147 -0.0181 0.0096
                        }
                      }
                    }
                  }
                  JOINT rPinky1
                  {
                    OFFSET -4.9141 -1.269 0.3592
                    CHANNELS 3 Zrotation Xrotation Yrotation
                    JOINT rPinky2
                    {
                      OFFSET -3.1477 -1.685 0.8462
                      CHANNELS 3 Zrotation Xrotation Yrotation
                      JOINT rPinky2_End
                      {
                        OFFSET -0.8055 -1.585 0.7955
                        CHANNELS 3 Zrotation Xrotation Yrotation
                        End Site
                        {
                          OFFSET -0.0081 -0.0158 0.008
                        }
                      }
                    }
                  }
                }
              }
            }
          }
        }
      }
    }
  }
  JOINT lThigh
  {
    OFFSET 8.367 -8.2066 0.5982
    CHANNELS 3 Zrotation Xrotation Yrotation
    JOINT lShin
    {
      OFFSET 2.1923 -43.463 -0.4932
      CHANNELS 3 Zrotation Xrotation Yrotation
      JOINT lFoot
      {
        OFFSET 0.7333 -45.8593 -2.6451
        CHANNELS 3 Zrotation Xrotation Yrotation
        End Site
        {
          OFFSET 2.6618 -4.2699 12.3931
        }
      }
    }
  }
  JOINT rThigh
  {
    OFFSET -8.367 -8.2066 0.5982
    CHANNELS 3 Zrotation Xrotation Yrotation
    JOINT rShin
    {
      OFFSET -2.1923 -43.463 -0.4931
      CHANNELS 3 Zrotation Xrotation Yrotation
      JOINT rFoot
      {
        OFFSET -0.7333 -45.8593 -2.6451
        CHANNELS 3 Zrotation Xrotation Yrotation
        End Site
        {
          OFFSET -2.6618 -4.2699 12.3931
        }
      }
    }
  }
}
MOTION
Frames:	4
Frame Time:	0.0333333
0 91.7903 2.51682 0 0 -0 0 0 -0 0 0 -0 0 0 -0 0 0 -0 0 0 -0 0 0 -0 1.66051 0.0835086 5.75766 -0.0175111 0.895433 15.7816 7.95139e-016 -1.98785e-016 -0 5.46658e-016 -3.97569e-016 -0 5.96354e-016 0 -0 3.97569e-016 1.98785e-016 9.54166e-015 1.49089e-016 -3.97569e-016 -0 6.4605e-016 0 3.18055e-015 5.96354e-016 0 3.18055e-015 8.94531e-016 -1.98785e-016 6.36111e-015 6.4605e-016 0 3.18055e-015 5.96354e-016 0 3.18055e-015 8.94531e-016 -1.98785e-016 6.36111e-015 1.49089e-016 -3.97569e-016 -0 6.4605e-016 0 3.18055e-015 5.96354e-016 0 3.18055e-015 8.94531e-016 -1.98785e-016 6.36111e-015 6.4605e-016 0 3.18055e-015 5.96354e-016 0 3.18055e-015 8.94531e-016 -1.98785e-016 6.36111e-015 0 0 -0 -1.4496 0.0636048 -5.0245 -1.74811 1.20616 -16.8394 -1.19271e-015 1.98785e-016 -3.18055e-015 -3.97569e-016 1.98785e-016 -3.18055e-015 -2.98177e-016 1.98785e-016 -3.18055e-015 -2.98177e-016 3.97569e-016 -0 4.96962e-016 0 -6.36111e-015 -9.93923e-017 3.97569e-016 -0 -8.94531e-016 5.96354e-016 -0 -3.97569e-016 3.97569e-016 -0 -9.93923e-017 3.97569e-016 -0 -8.94531e-016 5.96354e-016 -0 -3.97569e-016 3.97569e-016 -0 4.96962e-016 0 -6.36111e-015 -9.93923e-017 3.97569e-016 -0 -8.94531e-016 5.96354e-016 -0 -3.97569e-016 3.97569e-016 -0 -9.93923e-017 3.97569e-016 -0 -8.94531e-016 5.96354e-016 -0 -3.97569e-016 3.97569e-016 -0 -4.66111 -0.998717 0.12318 0.00986924 1.54847 0.176523 4.65186 -0.572283 -0.254274 4.66111 -0.998765 -0.123176 -0.00986867 1.54869 -0.176537 -4.65186 -0.572453 0.25427 
0.00818711 -29.1894 16.3882 -0 -22.965 -0 -0.258267 13.0908 -0.0331632 -0.530214 26.1817 -0.00397319 -0.530214 26.1817 -0.00397315 -16.2131 -24.5374 26.4016 7.87174 -10.9757 15.6475 -6.25917 -7.09353 -3.57207 -53.2664 -25.5359 -58.8563 5.87809 65.2986 -31.2789 -50.6655 12.0691 -15.3695 -1.59028e-015 -1.59028e-015 3.42904e-015 -1.59028e-015 -3.97569e-016 3.62782e-015 -1.59028e-015 3.97569e-016 2.03754e-015 6.20706e-033 -1.19271e-015 2.98177e-016 1.02072e-031 -1.59028e-015 3.67752e-015 -1.59028e-015 -7.95139e-016 3.72721e-015 -3.18055e-015 3.97569e-016 2.18663e-015 1.02072e-031 -1.59028e-015 3.67752e-015 -1.59028e-015 -7.95139e-016 3.72721e-015 -3.18055e-015 3.97569e-016 2.18663e-015 6.20706e-033 -1.19271e-015 2.98177e-016 1.02072e-031 -1.59028e-015 3.67752e-015 -1.59028e-015 -7.95139e-016 3.72721e-015 -3.18055e-015 3.97569e-016 2.18663e-015 1.02072e-031 -1.59028e-015 3.67752e-015 -1.59028e-015 -7.95139e-016 3.72721e-015 -3.18055e-015 3.97569e-016 2.18663e-015 6.26746 -7.07448 3.76779 53.3418 -25.4231 59.602 -7.53287 64.3656 31.8745 50.6798 11.902 15.4367 -2.79318e-032 5.96354e-016 2.68359e-015 -1.95244e-006 -1.65614e-006 -1.80642e-006 1.59028e-015 -1.31198e-014 -2.5345e-015 -2.74145e-032 5.96354e-016 2.6339e-015 1.59028e-015 5.96354e-016 2.78299e-015 -1.95244e-006 -1.65614e-006 -1.80642e-006 -5.77601e-031 -1.33186e-014 -2.48481e-015 1.59028e-015 5.96354e-016 2.78299e-015 -1.95244e-006 -1.65614e-006 -1.80642e-006 -5.77601e-031 -1.33186e-014 -2.48481e-015 -2.74145e-032 5.96354e-016 2.6339e-015 1.59028e-015 5.96354e-016 2.78299e-015 -1.95244e-006 -1.65614e-006 -1.80642e-006 -5.77601e-031 -1.33186e-014 -2.48481e-015 1.59028e-015 5.96354e-016 2.78299e-015 -1.95244e-006 -1.65614e-006 -1.80642e-006 -5.77601e-031 -1.33186e-014 -2.48481e-015 11.797 -86.7722 8.41967 174.826 67.3279 -171.323 -6.75182 -0.758671 -14.6445 -9.71522 -85.7013 -6.20437 -174.803 67.3053 171.324 6.82279 -1.66073 14.8778 
0.00948964 -85.3629 25.2608 -0 -33.2993 -0 -0.348486 18.9818 -0.0930591 -0.728074 37.9638 -0.060901 -0.728073 37.9638 -0.0609009 -15.6019 -31.2002 41.4648 13.4291 -15.4801 23.1012 -9.29336 -10.2909 -5.33602 -85.8922 -10.1043 -80.7053 62.683 60.5396 -102.332 -75.5438 14.7361 -17.6331 -9.54166e-015 0 3.18055e-015 1.9425e-006 2.3739e-007 -2.47548e-006 4.682e-007 -3.81064e-007 6.02676e-007 -9.54166e-015 3.18055e-015 4.77083e-015 3.18055e-015 -6.36111e-015 -6.36111e-015 1.9425e-006 2.3739e-007 -2.47548e-006 4.682e-007 -3.81064e-007 6.02676e-007 3.18055e-015 -6.36111e-015 -6.36111e-015 1.9425e-006 2.3739e-007 -2.47548e-006 4.682e-007 -3.81064e-007 6.02676e-007 -9.54166e-015 3.18055e-015 4.77083e-015 3.18055e-015 -6.36111e-015 -6.36111e-015 1.9425e-006 2.3739e-007 -2.47548e-006 4.682e-007 -3.81064e-007 6.02676e-007 3.18055e-015 -6.36111e-015 -6.36111e-015 1.9425e-006 2.3739e-007 -2.47548e-006 4.682e-007 -3.81064e-007 6.02676e-007 9.31958 -10.2619 5.62816 85.8919 -9.99644 81.4141 -61.2787 59.6626 100.315 75.5879 14.5349 17.5979 2.42739e-006 -3.73008e-006 -3.40634e-006 -3.56561e-006 -1.80828e-006 2.40737e-006 -4.67332e-007 -3.89397e-007 -5.96017e-007 -3.18055e-015 -3.18055e-015 1.59028e-015 2.42739e-006 -3.73008e-006 -3.40634e-006 -3.56561e-006 -1.80828e-006 2.40737e-006 -4.67332e-007 -3.89397e-007 -5.96017e-007 2.42739e-006 -3.73008e-006 -3.40634e-006 -3.56561e-006 -1.80828e-006 2.40737e-006 -4.67332e-007 -3.89397e-007 -5.96017e-007 -3.18055e-015 -3.18055e-015 1.59028e-015 2.42739e-006 -3.73008e-006 -3.40634e-006 -3.56561e-006 -1.80828e-006 2.40737e-006 -4.67332e-007 -3.89397e-007 -5.96017e-007 2.42739e-006 -3.73008e-006 -3.40634e-006 -3.56561e-006 -1.80828e-006 2.40737e-006 -4.67332e-007 -3.89397e-007 -5.96017e-007 -168.589 -33.6329 -147.081 174.885 15.8824 -150.716 -12.4021 15.4748 -5.4518 168.295 -34.8784 147.001 -174.883 15.8621 150.714 12.4902 14.5339 5.7791 
0.0117056 -72.8447 23.1231 -0 -31.0028 -0 -0.331 17.6727 -0.0769198 -0.689018 35.3455 -0.043579 -0.689018 35.3455 -0.0435793 -16.1253 -29.7835 37.526 12.1436 -15.0539 21.3568 -8.43137 -9.64385 -5.18921 -79.2914 -14.9265 -77.3243 54.1772 64.8355 -90.894 -69.9191 14.3908 -17.3021 3.18055e-015 0 -3.18055e-015 -3.02218e-006 6.95835e-007 -1.14832e-006 -2.422e-007 4.28727e-007 1.92211e-006 3.18055e-015 0 -3.18055e-015 9.54166e-015 -9.54166e-015 2.54444e-014 -3.02218e-006 6.95835e-007 -1.14832e-006 -2.422e-007 4.28727e-007 1.92211e-006 9.54166e-015 -9.54166e-015 2.54444e-014 -3.02218e-006 6.95835e-007 -1.14832e-006 -2.422e-007 4.28727e-007 1.92211e-006 3.18055e-015 0 -3.18055e-015 9.54166e-015 -9.54166e-015 2.54444e-014 -3.02218e-006 6.95835e-007 -1.14832e-006 -2.422e-007 4.28727e-007 1.92211e-006 9.54166e-015 -9.54166e-015 2.54444e-014 -3.02218e-006 6.95835e-007 -1.14832e-006 -2.422e-007 4.28727e-007 1.92211e-006 8.45044 -9.61947 5.47349 79.3007 -14.8144 78.0353 -53.0238 63.8235 89.0398 69.9554 14.1988 17.2973 -4.7804e-007 -4.06919e-007 -5.68986e-007 -8.82781e-031 -6.36111e-015 -7.95139e-015 3.18055e-015 -3.18055e-015 -3.18055e-015 3.18055e-015 3.18055e-015 -1.59028e-015 -4.7804e-007 -4.06919e-007 -5.68986e-007 9.54166e-015 -6.36111e-015 3.18055e-015 3.18055e-015 -3.18055e-015 3.18055e-015 -4.7804e-007 -4.06919e-007 -5.68986e-007 9.54166e-015 -6.36111e-015 3.18055e-015 3.18055e-015 -3.18055e-015 3.18055e-015 3.18055e-015 3.18055e-015 -1.59028e-015 -4.7804e-007 -4.06919e-007 -5.68986e-007 9.54166e-015 -6.36111e-015 3.18055e-015 3.18055e-015 -3.18055e-015 3.18055e-015 -4.7804e-007 -4.06919e-007 -5.68986e-007 9.54166e-015 -6.36111e-015 3.18055e-015 3.18055e-015 -3.18055e-015 3.18055e-015 -167.284 -54.2583 -162.68 175.548 27.6728 -162.721 -11.1912 5.92198 -13.066 167.252 -55.6149 162.77 -175.542 27.6474 162.738 11.1683 4.86949 13.4933 
